HIERARCHY
ROOT Hips
{
	OFFSET 0.000000 0.000000 0.000000
	CHANNELS 6 Xposition Yposition Zposition Zrotation Yrotation Xrotation 
	JOINT LHipJoint
	{
		OFFSET 0.000000 0.000000 0.000000
		CHANNELS 3 Zrotation Yrotation Xrotation
		JOINT LeftUpLeg
		{
			OFFSET 1.363060 -1.794630 0.839290
			CHANNELS 3 Zrotation Yrotation Xrotation
			JOINT LeftLeg
			{
				OFFSET 2.448110 -6.726130 0.000000
				CHANNELS 3 Zrotation Yrotation Xrotation
				JOINT LeftFoot
				{
					OFFSET 2.562200 -7.039590 0.000000
					CHANNELS 3 Zrotation Yrotation Xrotation
					JOINT LeftToeBase
					{
						OFFSET 0.157640 -0.433110 2.322550
						CHANNELS 3 Zrotation Yrotation Xrotation
						End Site
						{
							OFFSET 0.000000 0.000000 0.000000
						}
					}
				}
			}
		}
	}
	JOINT RHipJoint
	{
		OFFSET 0.000000 0.000000 0.000000
		CHANNELS 3 Zrotation Yrotation Xrotation
		JOINT RightUpLeg
		{
			OFFSET -1.305520 -1.794630 0.839290
			CHANNELS 3 Zrotation Yrotation Xrotation
			JOINT RightLeg
			{
				OFFSET -2.542530 -6.985550 0.000000
				CHANNELS 3 Zrotation Yrotation Xrotation
				JOINT RightFoot
				{
					OFFSET -2.568260 -7.056230 0.000000
					CHANNELS 3 Zrotation Yrotation Xrotation
					JOINT RightToeBase
					{
						OFFSET -0.164730 -0.452590 2.363150
						CHANNELS 3 Zrotation Yrotation Xrotation
						End Site
						{
							OFFSET 0.000000 0.000000 0.000000
						}
					}
				}
			}
		}
	}
	JOINT LowerBack
	{
		OFFSET 0.000000 0.000000 0.000000
		CHANNELS 3 Zrotation Yrotation Xrotation
		JOINT Spine
		{
			OFFSET 0.028270 2.035590 -0.193380
			CHANNELS 3 Zrotation Yrotation Xrotation
			JOINT Spine1
			{
				OFFSET 0.056720 2.048850 -0.042750
				CHANNELS 3 Zrotation Yrotation Xrotation
				JOINT Neck
				{
					OFFSET 0.000000 0.000000 0.000000
					CHANNELS 3 Zrotation Yrotation Xrotation
					JOINT Neck1
					{
						OFFSET -0.054170 1.746240 0.172020
						CHANNELS 3 Zrotation Yrotation Xrotation
						JOINT Head
						{
							OFFSET 0.104070 1.761360 -0.123970
							CHANNELS 3 Zrotation Yrotation Xrotation
							End Site
							{
								OFFSET 0.000000 0.000000 0.000000
							}
						}
					}
				}
				JOINT LeftShoulder
				{
					OFFSET 0.000000 0.000000 0.000000
					CHANNELS 3 Zrotation Yrotation Xrotation
					JOINT LeftArm
					{
						OFFSET 3.362410 1.200890 -0.311210
						CHANNELS 3 Zrotation Yrotation Xrotation
						JOINT LeftForeArm
						{
							OFFSET 4.983000 -0.000000 -0.000000
							CHANNELS 3 Zrotation Yrotation Xrotation
							JOINT LeftHand
							{
								OFFSET 3.483560 -0.000000 -0.000000
								CHANNELS 3 Zrotation Yrotation Xrotation
								JOINT LeftFingerBase
								{
									OFFSET 0.000000 0.000000 0.000000
									CHANNELS 3 Zrotation Yrotation Xrotation
									JOINT LeftHandIndex1
									{
										OFFSET 0.715260 -0.000000 -0.000000
										CHANNELS 3 Zrotation Yrotation Xrotation
										End Site
										{
											OFFSET 0.000000 0.000000 0.000000
										}
									}
								}
								JOINT LThumb
								{
									OFFSET 0.000000 0.000000 0.000000
									CHANNELS 3 Zrotation Yrotation Xrotation
									End Site
									{
										OFFSET 0.000000 0.000000 0.000000
									}
								}
							}
						}
					}
				}
				JOINT RightShoulder
				{
					OFFSET 0.000000 0.000000 0.000000
					CHANNELS 3 Zrotation Yrotation Xrotation
					JOINT RightArm
					{
						OFFSET -3.136600 1.374050 -0.404650
						CHANNELS 3 Zrotation Yrotation Xrotation
						JOINT RightForeArm
						{
							OFFSET -5.241900 -0.000000 -0.000000
							CHANNELS 3 Zrotation Yrotation Xrotation
							JOINT RightHand
							{
								OFFSET -3.444170 -0.000000 -0.000000
								CHANNELS 3 Zrotation Yrotation Xrotation
								JOINT RightFingerBase
								{
									OFFSET 0.000000 0.000000 0.000000
									CHANNELS 3 Zrotation Yrotation Xrotation
									JOINT RightHandIndex1
									{
										OFFSET -0.622530 -0.000000 -0.000000
										CHANNELS 3 Zrotation Yrotation Xrotation
										End Site
										{
											OFFSET 0.000000 0.000000 0.000000
										}
									}
								}
								JOINT RThumb
								{
									OFFSET 0.000000 0.000000 0.000000
									CHANNELS 3 Zrotation Yrotation Xrotation
									End Site
									{
										OFFSET 0.000000 0.000000 0.000000
									}
								}
							}
						}
					}
				}
			}
		}
	}
}
MOTION
Frames: 4
Frame Time: 0.008333
10.537033 14.715464 23.863264 -179.595889 -0.128569 -134.699637 11.113426 1.328312 -3.253300 -3.580641 -22.674218 -84.513782 14.440642 26.012779 76.905828 3.571856 -4.641884 -37.236724 3.950600 -12.094400 -36.066900 -13.782989 -2.717008 -0.981657 6.119233 28.201136 -85.843665 -13.370535 -26.801132 75.113514 -4.744989 1.856585 -41.199655 -2.735500 10.254100 -29.803500 -1.780848 -0.766474 -4.212514 1.388398 -1.202046 -5.087349 0.324113 -0.778781 4.901590 -2.824350 -7.667123 -6.219305 0.039595 -10.001800 -2.240221 -3.433300 -4.803300 -3.149500 17.920758 -0.306514 -0.266997 -92.226624 14.150237 34.792023 18.437267 -24.332055 -5.388279 -1.960933 0.932361 0.952144 26.307684 -16.572286 -9.086100 -7.125000 0.000000 0.000000 0.225000 10.505700 -0.180200 -11.192249 -0.389536 -0.469970 91.416206 -17.125338 6.852706 -12.257639 23.245346 -3.427970 1.171946 3.759436 4.151014 -15.299352 -45.088009 12.333400 7.125000 0.000000 0.000000 48.913500 -75.562600 -36.970800 
10.538894 14.546697 23.877720 -179.469285 0.153819 -134.634968 11.126156 1.391734 -3.277153 -3.475100 -22.323702 -85.687370 15.194520 26.168398 78.862221 3.792166 -4.701537 -38.127827 3.545600 -11.529900 -34.088400 -13.771706 -2.773140 -0.998638 5.736176 28.416783 -87.245963 -14.183616 -27.031115 77.199661 -4.881142 1.462190 -41.713982 -2.936000 10.590700 -30.911500 -1.891944 -0.716894 -3.782639 1.400595 -1.108100 -5.022958 0.437637 -0.729886 4.899691 -2.861317 -7.608406 -6.291325 0.007318 -9.886314 -2.623873 -3.446500 -4.735400 -3.257300 17.903779 -0.347553 -0.245955 -92.529962 13.630366 34.183027 18.416562 -24.280011 -5.357545 -2.000321 0.938979 0.634774 26.680398 -16.779227 -9.348300 -7.125000 0.000000 0.000000 0.466800 10.197300 -0.376800 -11.179805 -0.377099 -0.474311 91.338290 -17.038730 7.219916 -12.385337 23.398452 -3.481594 1.146253 3.747901 3.758176 -15.230673 -44.820048 12.228700 7.125000 0.000000 0.000000 48.030800 -75.375600 -36.073100 
10.541523 14.379792 23.891081 -179.313775 0.453531 -134.615840 11.148377 1.450484 -3.304977 -3.368668 -21.917324 -86.764884 15.927513 26.270270 80.790154 3.867385 -5.725158 -38.714365 2.990100 -10.679000 -31.204600 -13.760445 -2.814237 -1.009040 5.554631 28.622915 -88.261396 -14.737387 -27.172115 78.615426 -4.957962 1.210733 -41.989348 -3.083800 10.829600 -31.707200 -1.962091 -0.612519 -3.320776 1.364937 -0.940704 -4.958872 0.388508 -0.644935 4.843691 -2.871231 -7.528217 -6.218825 -0.017878 -9.779623 -2.880688 -3.449400 -4.674400 -3.350200 17.871768 -0.408742 -0.226160 -92.631347 12.952035 33.699245 18.277822 -24.057995 -5.254879 -2.040986 0.954270 0.437032 27.089977 -16.910974 -9.594700 -7.125000 0.000000 0.000000 0.741100 9.956600 -0.601900 -11.187820 -0.352884 -0.463243 91.560243 -16.892511 7.381839 -12.514354 23.560862 -3.538660 1.144255 3.735473 3.527831 -15.388022 -44.679100 12.331800 7.125000 0.000000 0.000000 47.362000 -75.349900 -35.501700 
10.544151 14.215296 23.923717 -179.231415 0.655062 -134.148518 11.168435 1.537436 -3.324755 -2.952292 -21.597920 -88.523268 16.736467 26.366020 82.911395 3.901332 -6.719965 -39.113302 2.450300 -9.747000 -28.161400 -13.732264 -2.893525 -1.001472 5.045015 28.647803 -89.868609 -15.346082 -27.312190 80.151461 -5.103345 1.198640 -42.470606 -3.062200 10.795100 -31.592000 -2.000250 -0.524527 -3.072056 1.328845 -0.825861 -5.012333 0.286283 -0.579448 4.520338 -2.897533 -7.476305 -6.037209 0.069660 -9.768356 -2.935721 -3.405300 -4.672700 -3.381300 17.839990 -0.473122 -0.223020 -92.858458 12.407379 32.985993 18.164353 -23.855369 -5.166056 -2.069241 0.973541 0.543530 27.444822 -16.956740 -9.773100 -7.125000 0.000000 0.000000 0.984800 9.825700 -0.802500 -11.202663 -0.323199 -0.470817 91.795070 -16.837669 7.771799 -12.686309 23.776205 -3.616411 1.141288 3.727363 3.172118 -15.617824 -44.593851 12.506100 7.125000 0.000000 0.000000 46.801600 -75.385800 -35.075600 
